<svg viewBox="0 0 164 146" fill="none" xmlns="http://www.w3.org/2000/svg"><path fill-rule="evenodd" clip-rule="evenodd" d="M33.6681 0H45.3396C49.2301 0 52.5221 3.14462 52.5221 7.18769V13.7764C52.5221 17.6697 49.3798 20.9641 45.3396 20.9641H33.6681C29.7776 20.9641 26.4856 17.8195 26.4856 13.7764V7.18769C26.6352 3.14462 29.7776 0 33.6681 0Z" fill="#754429"/><path fill-rule="evenodd" clip-rule="evenodd" d="M119.259 0H125.095C128.986 0 132.278 3.14462 132.278 7.18769V13.7764C132.278 17.6697 129.135 20.9641 125.095 20.9641H119.259C115.369 20.9641 112.077 17.8195 112.077 13.7764V7.18769C112.227 3.14462 115.369 0 119.259 0Z" fill="#744329"/><path fill-rule="evenodd" clip-rule="evenodd" d="M37.8576 7.78674H120.905C138.412 7.78674 152.628 22.0124 152.628 39.5324V113.356C152.628 131.325 137.963 146 120.007 146H38.6058C20.6496 146 5.98535 131.325 5.98535 113.356V39.5324C6.13499 22.0124 20.3503 7.78674 37.8576 7.78674Z" fill="#A56644"/><path d="M13.0183 2.54578H40.2519V7.7868C40.2519 28.6012 23.3431 45.3724 2.69346 45.3724V13.0278C2.54383 7.18783 7.18251 2.54578 13.0183 2.54578Z" fill="#754429"/><path d="M2.5438 48.0677C1.04745 48.0677 0 46.8697 0 45.5221V13.0277C0 5.84 5.83577 0 13.0182 0H40.2518C41.7482 0 42.7956 1.19795 42.7956 2.54564V7.78667C42.7956 29.9487 24.6898 48.0677 2.5438 48.0677ZM13.0182 5.24103C8.67883 5.24103 5.23723 8.68513 5.23723 13.0277V42.8267C23.3431 41.479 37.708 26.3549 37.708 7.93641V5.24103H13.0182Z" fill="#744329"/><path d="M151.131 2.54578H123.898V3.89347C123.898 24.7078 140.806 41.4791 161.456 41.4791V13.0278C161.456 7.18783 156.817 2.54578 151.131 2.54578Z" fill="#744329"/><path d="M161.456 44.1744C139.31 44.1744 121.204 26.0554 121.204 3.89333V2.54564C121.204 1.04821 122.401 0 123.748 0H151.131C158.314 0 164.15 5.84 164.15 13.0277V41.6287C164 42.9764 162.953 44.1744 161.456 44.1744ZM126.442 5.24103C127.04 23.0605 141.106 37.5856 158.912 38.9333V13.0277C158.912 8.68513 155.471 5.24103 151.131 5.24103H126.442Z" fill="#744329"/><path fill-rule="evenodd" clip-rule="evenodd" d="M66.1386 18.1188C73.3211 18.1188 79.1569 23.9588 79.1569 31.1465V38.9331C79.1569 46.1208 73.3211 51.9608 66.1386 51.9608C58.9561 51.9608 53.1204 46.1208 53.1204 38.9331V31.1465C53.1204 23.9588 58.9561 18.1188 66.1386 18.1188Z" fill="white"/><path fill-rule="evenodd" clip-rule="evenodd" d="M67.9342 25.3069C71.6751 25.3069 74.8174 28.4515 74.8174 32.1951V37.8853C74.8174 41.6289 71.6751 44.7736 67.9342 44.7736C64.1934 44.7736 61.051 41.6289 61.051 37.8853V32.1951C61.051 28.4515 64.1934 25.3069 67.9342 25.3069Z" fill="#4C4B4C"/><path fill-rule="evenodd" clip-rule="evenodd" d="M97.2626 18.1188C90.0802 18.1188 84.2444 23.9588 84.2444 31.1465V38.9331C84.2444 46.1208 90.0802 51.9608 97.2626 51.9608C104.445 51.9608 110.281 46.1208 110.281 38.9331V31.1465C110.281 23.9588 104.445 18.1188 97.2626 18.1188Z" fill="white"/><path fill-rule="evenodd" clip-rule="evenodd" d="M95.4672 25.3069C91.7263 25.3069 88.584 28.4515 88.584 32.1951V37.8853C88.584 41.6289 91.7263 44.7736 95.4672 44.7736C99.2081 44.7736 102.35 41.6289 102.35 37.8853V32.1951C102.35 28.4515 99.2081 25.3069 95.4672 25.3069Z" fill="#4C4B4C"/><path fill-rule="evenodd" clip-rule="evenodd" d="M44.2918 51.3619H114.321C123.598 51.3619 131.23 58.8491 131.23 68.283V103.772C131.23 116.051 121.354 125.934 108.934 125.934H49.6787C37.4086 125.934 27.3831 116.051 27.3831 103.772V68.1332C27.5327 58.8491 35.0144 51.3619 44.2918 51.3619Z" fill="#DA8C63"/><path fill-rule="evenodd" clip-rule="evenodd" d="M81.7006 68.1333C88.1349 68.1333 93.3721 73.3743 93.3721 79.8133V95.5364C93.3721 101.975 88.1349 107.216 81.7006 107.216C75.2663 107.216 70.0291 101.975 70.0291 95.5364V79.8133C70.0291 73.3743 75.2663 68.1333 81.7006 68.1333Z" fill="#F6A4A5"/><path fill-rule="evenodd" clip-rule="evenodd" d="M81.701 73.674C83.1974 73.674 84.2448 74.8719 84.2448 76.2196V91.7929C84.2448 93.2904 83.0477 94.3386 81.701 94.3386C80.2047 94.3386 79.1572 93.1406 79.1572 91.7929V76.3693C79.1572 74.8719 80.2047 73.674 81.701 73.674Z" fill="#E48E8F"/><path fill-rule="evenodd" clip-rule="evenodd" d="M36.5112 57.2021H133.325C134.223 57.2021 134.821 57.8011 134.821 58.6996V79.0647C134.821 79.9632 134.223 80.5621 133.325 80.5621H36.5112C35.6134 80.5621 35.0149 79.9632 35.0149 79.0647V58.6996C35.0149 57.8011 35.7631 57.2021 36.5112 57.2021Z" fill="white"/><path d="M131.379 91.4933C138.156 91.4933 143.65 85.9288 143.65 79.0646C143.65 72.2004 138.156 66.6359 131.379 66.6359C124.603 66.6359 119.109 72.2004 119.109 79.0646C119.109 85.9288 124.603 91.4933 131.379 91.4933Z" fill="white"/><path d="M131.379 69.0317C138.156 69.0317 143.65 63.4672 143.65 56.603C143.65 49.7388 138.156 44.1743 131.379 44.1743C124.603 44.1743 119.109 49.7388 119.109 56.603C119.109 63.4672 124.603 69.0317 131.379 69.0317Z" fill="white"/><path fill-rule="evenodd" clip-rule="evenodd" d="M32.4708 91.3438C39.354 91.3438 44.7409 85.8032 44.7409 78.915C44.7409 72.0268 39.2044 66.4863 32.4708 66.4863C25.5876 66.4863 20.2007 72.0268 20.2007 78.915C20.0511 85.8032 25.5876 91.3438 32.4708 91.3438Z" fill="white"/><path fill-rule="evenodd" clip-rule="evenodd" d="M32.4708 68.8822C39.354 68.8822 44.7409 63.3417 44.7409 56.4535C44.7409 49.5653 39.2044 44.0248 32.4708 44.0248C25.5876 44.0248 20.2007 49.5653 20.2007 56.4535C20.0511 63.3417 25.5876 68.8822 32.4708 68.8822Z" fill="white"/><path fill-rule="evenodd" clip-rule="evenodd" d="M53.1204 46.7201H109.982C116.117 46.7201 121.055 51.6616 121.055 57.8011C121.055 63.9406 116.117 68.8821 109.982 68.8821H53.1204C46.9853 68.8821 42.0474 63.9406 42.0474 57.8011C42.0474 51.6616 47.135 46.7201 53.1204 46.7201Z" fill="#DA8C63"/><path fill-rule="evenodd" clip-rule="evenodd" d="M78.8576 43.5752H85.2919C89.0328 43.5752 92.0255 46.5701 92.0255 50.3137C92.0255 54.0572 89.0328 57.0521 85.2919 57.0521H78.8576C75.1167 57.0521 72.124 54.0572 72.124 50.3137C71.9744 46.5701 74.9671 43.5752 78.8576 43.5752Z" fill="#5A5B5B"/></svg>