<svg viewBox="0 0 42 56" fill="none" xmlns="http://www.w3.org/2000/svg"><path d="M21.048 16.905c3.484 0 6.309-2.808 6.309-6.273 0-3.464-2.825-6.272-6.31-6.272-3.483 0-6.308 2.808-6.308 6.272 0 3.465 2.825 6.273 6.309 6.273z" fill="#3D3D3D"/><mask id="a" style="mask-type:alpha" maskUnits="userSpaceOnUse" x="0" y="18" width="42" height="27"><path d="M13.483 18.427h15.034c7.196 0 13.029 5.833 13.029 13.03 0 7.195-5.833 13.03-13.03 13.03H13.484c-7.196 0-13.029-5.835-13.029-13.03 0-7.197 5.833-13.03 13.03-13.03z" fill="#fff"/></mask><g mask="url(#a)"><path d="M13.483 18.427h15.034c7.196 0 13.029 5.833 13.029 13.03 0 7.195-5.833 13.03-13.03 13.03H13.484c-7.196 0-13.029-5.835-13.029-13.03 0-7.197 5.833-13.03 13.03-13.03z" fill="#3D3D3D"/><path fill-rule="evenodd" clip-rule="evenodd" d="M-9.282 33.103h59.705v11.67H-9.282v-11.67z" fill="#9F9F9F"/></g><path fill-rule="evenodd" clip-rule="evenodd" d="M21.157 23.431c8.91 0 16.134 7.223 16.134 16.134v8.075a4 4 0 0 1-4 4H9.022a4 4 0 0 1-4-4v-8.075c0-8.91 7.223-16.134 16.135-16.134z" fill="#FFCBA3"/><path fill-rule="evenodd" clip-rule="evenodd" d="M10.025 22.271h23.568v3.844H10.025V22.27z" fill="#3D3D3D"/><path fill-rule="evenodd" clip-rule="evenodd" d="M17.378 29.812a3.366 3.366 0 0 1 3.364 3.365v2.077a3.364 3.364 0 1 1-6.729 0v-2.078a3.365 3.365 0 0 1 3.365-3.364z" fill="#fff"/><path fill-rule="evenodd" clip-rule="evenodd" d="M18.298 31.783c.836 0 1.515.678 1.515 1.516V35.2a1.515 1.515 0 0 1-3.03 0v-1.902c0-.838.678-1.516 1.515-1.516z" fill="#3D3D3D"/><path d="M16.961 33.215a1.11 1.11 0 1 0 0-2.22 1.11 1.11 0 0 0 0 2.22z" fill="#fff"/><path fill-rule="evenodd" clip-rule="evenodd" d="M25.346 29.812a3.366 3.366 0 0 0-3.365 3.365v2.077a3.364 3.364 0 1 0 6.729 0v-2.078a3.364 3.364 0 0 0-3.363-3.364h-.001z" fill="#fff"/><path fill-rule="evenodd" clip-rule="evenodd" d="M24.595 31.783c-.836 0-1.515.678-1.515 1.516V35.2a1.515 1.515 0 0 0 3.03 0v-1.902c0-.838-.678-1.516-1.515-1.516z" fill="#3D3D3D"/><path d="M23.497 33.215a1.11 1.11 0 1 1 0-2.22 1.11 1.11 0 0 1 0 2.22z" fill="#fff"/><path fill-rule="evenodd" clip-rule="evenodd" d="M13.519 36.629c3.785.263 6.392.834 7.818 1.714 1.427.879.225 3.426-3.606 7.639l-6.4-5.494 2.189-3.86h-.001z" fill="#FFCBA3"/><path fill-rule="evenodd" clip-rule="evenodd" d="M29.737 36.846c-3.784.263-6.391.835-7.818 1.715-1.427.88-.226 3.426 3.606 7.64l6.4-5.495-2.188-3.86z" fill="#FFCBA3"/><path fill-rule="evenodd" clip-rule="evenodd" d="M21.374 39.891a1.64 1.64 0 0 0 1.632-1.648c0-.91-1.632-3.065-1.632-3.065s-1.632 2.154-1.632 3.065c0 .91.731 1.648 1.632 1.648z" fill="#E89665"/><path d="M16.396 39.694c2.299 2.828 5.072 3.317 8.319 1.466" stroke="#E89665" stroke-width=".895" stroke-linecap="round" stroke-linejoin="round"/><path d="M18.437 45.837c1.814 1.161 3.626 1.161 5.439 0" stroke="#F7B286" stroke-width=".689" stroke-linecap="round" stroke-linejoin="round"/><path fill-rule="evenodd" clip-rule="evenodd" d="M12.78 35.033h8.23c1.309 0 .706-3.752-1.376-5.01-1.597-.966-4.625.34-4.937.34-.476 0-1.115 1.556-1.915 4.67h-.001z" fill="#FFCBA3"/><path fill-rule="evenodd" clip-rule="evenodd" d="M20.468 35.033h8.228c1.31 0 .707-3.606-1.375-4.865-1.598-.966-4.625.34-4.937.34-.477 0-1.115 1.508-1.916 4.525z" fill="#FFCBA3"/><path opacity=".626" d="M32.143 34.09l-2.611 1.088 2.61 1.16m-22.116-2.247l2.61 1.087-2.61 1.16" stroke="#F3A577" stroke-width=".689" stroke-linecap="round" stroke-linejoin="round"/><path fill-rule="evenodd" clip-rule="evenodd" d="M5.74 23.141h3.206a3.4 3.4 0 0 1 3.4 3.4v3.206a3.4 3.4 0 0 1-3.4 3.4H5.74a3.401 3.401 0 0 1-3.4-3.4v-3.205a3.4 3.4 0 0 1 3.4-3.401zm27.627-.363h2.771a3.4 3.4 0 0 1 3.401 3.401v3.568a3.4 3.4 0 0 1-3.4 3.4h-2.772a3.4 3.4 0 0 1-3.4-3.4V26.18a3.4 3.4 0 0 1 3.4-3.4z" fill="#3D3D3D"/><path d="M17.06 29.667c3.06-.87 5.987-.87 8.774 0" stroke="#3D3D3D" stroke-width="2.093" stroke-linecap="round" stroke-linejoin="round"/></svg>