<svg viewBox="0 0 42 56" fill="none" xmlns="http://www.w3.org/2000/svg"><g clip-path="url(#clip0_21922_102)"><path d="M33.57 26.297c0-7.012-5.629-12.695-12.572-12.695-6.942 0-12.57 5.683-12.57 12.695v11.719c0 7.011 5.628 12.695 12.57 12.695 6.943 0 12.571-5.684 12.571-12.695v-11.72z" fill="#C6775C"/><path d="M39.577 21.765c0-10.356-8.312-18.75-18.566-18.75-10.253 0-18.566 8.394-18.566 18.75v4.687c0 10.355 8.313 18.75 18.566 18.75 10.254 0 18.566-8.395 18.566-18.75v-4.687z" fill="#0084C2"/><path opacity=".6" fill-rule="evenodd" clip-rule="evenodd" d="M32.818 7.294c.527.439 1.03.907 1.506 1.4a5.777 5.777 0 0 1-.508 1.605c-.688 1.436-1.88 2.568-2.8 3.048l-9.735 5.357-.717-1.329 9.743-5.361.008-.005.008-.004c.62-.322 1.59-1.21 2.144-2.366.35-.73.52-1.528.351-2.345z" fill="#005AAD"/><path fill-rule="evenodd" clip-rule="evenodd" d="M20.956 17.172c-8.963 4.886-11.992 7.672-11.992 18.817h11.992V17.172zm12.116 18.817H20.956V17.172c9.01 4.886 12.116 7.672 12.116 18.817z" fill="#C6775C"/><path d="M.705 43.48c0-5.178 4.226-9.375 9.439-9.375h21.735c5.213 0 9.439 4.197 9.439 9.374 0 5.178-4.226 9.375-9.44 9.375H10.145c-5.213 0-9.44-4.197-9.44-9.375z" fill="#3D3D3D"/><path d="M13.515 38.956c-.248-1.566.33-3.635 2.108-3.635 1.779 0 1.91 1.545 3.03 2.082 1.66.796 3.426 1.007 3.426 3.156 0 .47-.264 2.283-2.899 2.283-3.557 0-5.413-2.294-5.665-3.886z" fill="#fff"/><path d="M16.89 17.555c.935.514 1.796 1.683 1.06 2.648-.737.964-1.613.396-2.362.78-1.11.57-1.954 1.44-3.096.55-.25-.194-1.104-1.087-.013-2.516 1.473-1.928 3.46-1.984 4.41-1.462zM25.908 18.288c-.935.514-1.796 1.683-1.06 2.647.737.965 1.613.396 2.362.781 1.11.57 1.954 1.44 3.096.55.25-.194 1.104-1.088.013-2.516-1.473-1.929-3.46-1.985-4.41-1.462z" fill="#3D3D3D"/><path d="M29.714 26.683c0-2.158-1.731-3.907-3.868-3.907-2.136 0-3.867 1.75-3.867 3.907v2.343c0 2.158 1.731 3.907 3.867 3.907 2.137 0 3.868-1.75 3.868-3.907v-2.343zM12.309 26.683c0-2.158 1.731-3.907 3.868-3.907 2.136 0 3.867 1.75 3.867 3.907v2.343c0 2.158-1.731 3.907-3.867 3.907-2.137 0-3.868-1.75-3.868-3.907v-2.343z" fill="#fff"/><path d="M17.432 26.303a1.4 1.4 0 0 1-1.393 1.407 1.4 1.4 0 0 1-1.394-1.407 1.4 1.4 0 0 1 1.394-1.408 1.4 1.4 0 0 1 1.393 1.408z" fill="#fff"/><path d="M23.704 33.706c0 1.506-1.21 2.727-2.7 2.727-1.492 0-2.7-1.22-2.7-2.727 0-1.506 1.208-2.727 2.7-2.727 1.49 0 2.7 1.221 2.7 2.727z" fill="#C6775C"/><path fill-rule="evenodd" clip-rule="evenodd" d="M15.353 26.978c.769 0 1.392-.605 1.392-1.352 0-.243-.066-.471-.181-.669.18-.053.37-.082.568-.082 1.068 0 1.934.84 1.934 1.878v2.103c0 1.038-.866 1.878-1.934 1.878s-1.934-.84-1.934-1.878V26.97c.051.006.103.008.155.008zM23.089 26.978c.769 0 1.392-.605 1.392-1.352 0-.243-.066-.471-.182-.669.18-.053.371-.082.569-.082 1.068 0 1.934.84 1.934 1.878v2.103c0 1.038-.866 1.878-1.934 1.878s-1.934-.84-1.934-1.878V26.97c.05.006.102.008.155.008z" fill="#3D3D3D"/></g><defs><clipPath id="clip0_21922_102"><path fill="#fff" transform="translate(.5 3)" d="M0 0h41v50H0z"/></clipPath></defs></svg>