<svg viewBox="0 0 252 480" fill="none" xmlns="http://www.w3.org/2000/svg"><path d="M134.687 133.477C171.559 133.477 201.45 103.597 201.45 66.7385C201.45 29.8798 171.559 2.88926e-08 134.687 1.8613e-08C97.8143 8.3333e-09 67.9232 29.8798 67.9232 66.7385C67.9232 103.597 97.8143 133.477 134.687 133.477Z" fill="#1C5E89"/><path opacity="0.2085" d="M179.891 17.8433L116.141 65.3481L120.314 70.9096L184.759 22.7096C183.368 21.0875 181.746 19.4654 179.891 17.8433Z" fill="black"/><path fill-rule="evenodd" clip-rule="evenodd" d="M114.75 312.837L153.464 312.837C154.855 312.837 156.014 313.995 156.014 315.386L156.014 449.094C156.014 450.485 154.855 451.643 153.464 451.643L114.75 451.643C113.359 451.643 112.2 450.485 112.2 449.094L112.2 315.386C111.968 313.995 113.127 312.837 114.75 312.837Z" fill="#1C5E89"/><path fill-rule="evenodd" clip-rule="evenodd" d="M130.05 190.019L137.932 190.019C183.6 190.019 220.691 227.096 220.691 272.747C220.691 318.398 183.6 355.475 137.932 355.475L130.05 355.475C84.3822 355.475 47.2912 318.398 47.2912 272.747C47.0594 227.096 84.1503 190.019 130.05 190.019Z" fill="#D93868"/><path d="M56.5638 311.214C70.4729 337.632 98.0593 355.707 130.05 355.707L137.932 355.707C169.923 355.707 197.509 337.632 211.418 311.214L56.5638 311.214Z" fill="#1C5E89"/><path fill-rule="evenodd" clip-rule="evenodd" d="M189.164 201.837L225.791 214.351C240.396 219.217 248.046 234.975 243.178 249.574C241.091 255.367 237.151 260.465 232.051 263.941L196.814 286.883C187.541 292.908 175.487 293.139 165.751 287.578L145.119 275.296C131.21 266.954 126.573 249.111 134.919 235.207C136.078 233.353 137.469 231.499 139.091 229.877L158.796 209.716C166.678 201.142 178.5 198.361 189.164 201.837Z" fill="#D93868"/><path fill-rule="evenodd" clip-rule="evenodd" d="M38.7139 174.261L7.41846 209.716C-3.24518 221.766 -2.08609 240.305 9.96846 250.964C11.3594 252.123 12.5185 253.05 14.1412 253.977L61.8957 283.175C70.0094 288.041 79.7457 288.737 88.5548 285.261L109.187 276.687C124.023 270.43 131.209 253.282 124.95 238.451C124.255 236.829 123.328 235.207 122.4 233.585L85.3094 177.506C76.5003 164.065 58.1866 160.358 44.7412 169.163C42.423 170.786 40.3366 172.408 38.7139 174.261Z" fill="#D93868"/><path d="M120.082 243.317C130.965 243.317 139.787 234.499 139.787 223.62C139.787 212.742 130.965 203.923 120.082 203.923C109.2 203.923 100.378 212.742 100.378 223.62C100.378 234.499 109.2 243.317 120.082 243.317Z" fill="#FEE781"/><path fill-rule="evenodd" clip-rule="evenodd" d="M106.173 71.373L134.223 50.9807L162.041 71.373C171.314 78.0932 176.878 88.9846 176.878 100.571L176.878 194.654L91.1051 194.654L91.1051 100.803C91.1051 88.9846 96.6687 78.0932 106.173 71.373Z" fill="#C6775B"/><path fill-rule="evenodd" clip-rule="evenodd" d="M60.9688 318.63L206.782 318.63C210.492 312.837 213.737 306.812 216.055 300.091L51.696 300.091C54.0142 306.58 57.0279 312.837 60.9688 318.63Z" fill="#0D3A56"/><path d="M92.4959 300.091L82.9913 300.091L82.9913 319.557L92.4959 319.557L92.4959 300.091Z" fill="#1C5E89"/><path d="M186.151 300.091L176.646 300.091L176.646 319.557L186.151 319.557L186.151 300.091Z" fill="#1C5E89"/><path fill-rule="evenodd" clip-rule="evenodd" d="M119.851 300.091L148.596 300.091C149.292 300.091 149.755 300.555 149.755 301.25L149.755 317.703C149.755 318.398 149.292 318.862 148.596 318.862L119.851 318.862C119.155 318.862 118.692 318.398 118.692 317.703L118.692 301.25C118.923 300.555 119.387 300.091 119.851 300.091Z" fill="#DCDADA"/><path d="M102.464 244.708C101.305 244.708 100.378 244.244 99.6821 243.549L90.8731 234.512C89.2503 232.89 89.2503 230.341 90.8731 228.95C92.4958 227.328 95.0458 227.328 96.4367 228.95L102.464 234.975L108.491 228.95C110.114 227.328 112.432 227.328 114.055 228.95C115.678 230.572 115.678 232.89 114.055 234.512L105.246 243.549C104.55 244.244 103.623 244.708 102.464 244.708Z" fill="#C5305C"/><path d="M102.464 267.417C101.305 267.417 100.378 266.954 99.6821 266.259L90.8731 257.221C89.2503 255.599 89.2503 253.05 90.8731 251.66C92.4958 250.037 95.0458 250.037 96.4367 251.66L102.464 257.685L108.491 251.66C110.114 250.037 112.432 250.037 114.055 251.66C115.678 253.282 115.678 255.599 114.055 257.221L105.246 266.259C104.55 267.186 103.623 267.417 102.464 267.417Z" fill="#C5305C"/><path d="M165.75 244.708C164.591 244.708 163.664 244.244 162.968 243.549L154.159 234.512C152.536 232.89 152.536 230.341 154.159 228.95C155.782 227.328 158.332 227.328 159.723 228.95L165.75 234.975L171.777 228.95C173.4 227.328 175.718 227.328 177.341 228.95C178.964 230.572 178.964 232.89 177.341 234.512L168.532 243.549C167.836 244.244 166.677 244.708 165.75 244.708Z" fill="#C5305C"/><path d="M165.75 267.417C164.591 267.417 163.664 266.954 162.968 266.259L154.159 257.221C152.536 255.599 152.536 253.05 154.159 251.66C155.782 250.037 158.332 250.037 159.723 251.66L165.75 257.685L171.777 251.66C173.4 250.037 175.718 250.037 177.341 251.66C178.964 253.282 178.964 255.599 177.341 257.221L168.532 266.259C167.836 267.186 166.677 267.417 165.75 267.417Z" fill="#C5305C"/><path d="M135.15 244.708C133.991 244.708 133.064 244.244 132.368 243.549L123.559 234.512C121.937 232.89 121.937 230.341 123.559 228.95C125.182 227.328 127.732 227.328 129.123 228.95L135.15 234.975L141.178 228.95C142.8 227.328 145.118 227.328 146.741 228.95C148.364 230.572 148.364 232.89 146.741 234.512L137.932 243.549C137.237 244.244 136.078 244.708 135.15 244.708Z" fill="#C5305C"/><path d="M135.15 267.417C133.991 267.417 133.064 266.954 132.368 266.259L123.559 257.221C121.937 255.599 121.937 253.05 123.559 251.66C125.182 250.037 127.732 250.037 129.123 251.66L135.15 257.685L141.178 251.66C142.8 250.037 145.118 250.037 146.741 251.66C148.364 253.282 148.364 255.599 146.741 257.221L137.932 266.259C137.237 267.186 136.078 267.417 135.15 267.417Z" fill="#C5305C"/><path fill-rule="evenodd" clip-rule="evenodd" d="M101.537 449.558L166.446 449.558C170.85 449.558 174.56 453.266 174.56 457.668C174.56 462.071 170.85 465.779 166.446 465.779L101.537 465.779C97.1323 465.779 93.4232 462.071 93.4232 457.668C93.4232 453.266 97.1323 449.558 101.537 449.558Z" fill="#3D3D3D"/><path fill-rule="evenodd" clip-rule="evenodd" d="M146.278 75.7759C152.769 75.7759 158.1 81.1057 158.1 87.5941L158.1 97.0951C158.1 103.584 152.769 108.913 146.278 108.913C139.787 108.913 134.455 103.815 134.455 97.0951L134.455 87.5941C134.455 81.1057 139.787 75.7759 146.278 75.7759Z" fill="white"/><path fill-rule="evenodd" clip-rule="evenodd" d="M117.3 75.7759C110.809 75.7759 105.477 81.1057 105.477 87.5941L105.477 97.0951C105.477 103.584 110.809 108.913 117.3 108.913C123.791 108.913 129.123 103.584 129.123 97.0951L129.123 87.5941C129.355 81.1057 124.023 75.7759 117.3 75.7759Z" fill="white"/><path fill-rule="evenodd" clip-rule="evenodd" d="M119.387 84.3502C116.605 84.3502 114.287 86.6675 114.287 89.4483L114.287 95.705C114.287 98.4858 116.605 100.803 119.387 100.803C122.169 100.803 124.487 98.4858 124.487 95.705L124.487 89.4483C124.487 86.4358 122.169 84.3502 119.387 84.3502Z" fill="#4C4B4C"/><path fill-rule="evenodd" clip-rule="evenodd" d="M143.959 84.8132C141.178 84.8132 138.859 87.1305 138.859 89.9113L138.859 96.168C138.859 98.9488 141.178 101.266 143.959 101.266C146.741 101.266 149.059 98.9488 149.059 96.168L149.059 89.9113C149.059 87.1305 146.741 84.8132 143.959 84.8132Z" fill="#4C4B4C"/><path d="M144.191 122.586L134.687 110.536C141.409 105.206 150.682 101.498 162.273 99.6443L164.823 114.707C155.782 116.329 148.827 118.878 144.191 122.586Z" fill="#C6775C"/><path fill-rule="evenodd" clip-rule="evenodd" d="M101.537 115.865L164.128 115.865C180.123 115.865 193.105 128.842 193.105 144.832C193.105 160.821 180.123 173.798 164.128 173.798L101.537 173.798C85.5415 173.798 72.5597 160.821 72.5597 144.832C72.5597 128.842 85.5415 115.865 101.537 115.865Z" fill="#3D3D3D"/><path fill-rule="evenodd" clip-rule="evenodd" d="M90.8733 190.019L179.66 190.019C181.978 190.019 183.832 191.873 183.832 194.19L183.832 197.203C183.832 199.52 181.978 201.374 179.66 201.374L90.8733 201.374C88.5551 201.374 86.7006 199.52 86.7006 197.203L86.7006 194.19C86.4688 191.873 88.3233 190.019 90.8733 190.019Z" fill="#D93868"/><path d="M142.105 243.317C154.908 243.317 165.287 232.942 165.287 220.144C165.287 207.346 154.908 196.971 142.105 196.971C129.302 196.971 118.923 207.346 118.923 220.144C118.923 232.942 129.302 243.317 142.105 243.317Z" fill="#FEE781"/><path fill-rule="evenodd" clip-rule="evenodd" d="M95.7412 215.51L169.923 215.51L169.923 222.462C169.923 242.854 153.232 259.538 132.832 259.538C112.432 259.538 95.7412 242.854 95.7412 222.462L95.7412 215.51Z" fill="white"/><path fill-rule="evenodd" clip-rule="evenodd" d="M147.205 265.1L140.714 255.831C137.7 251.66 138.628 245.867 142.8 242.854C146.973 239.842 152.537 240.769 155.55 244.708L162.041 253.977C165.055 258.148 164.128 263.942 159.955 266.954C156.014 270.198 150.219 269.271 147.205 265.1Z" fill="#C6775B"/><path opacity="0.3" d="M245.278 479.56L28.2957 479.56C24.5866 479.56 21.573 476.646 21.573 473.06C21.573 469.473 24.5866 466.56 28.2957 466.56L245.278 466.56C248.987 466.56 252 469.473 252 473.06C252 476.646 248.987 479.56 245.278 479.56Z" fill="#AFAFAF"/><path fill-rule="evenodd" clip-rule="evenodd" d="M127.037 108.913L136.309 108.913C139.555 108.913 142.105 111.462 142.105 114.707C142.105 117.951 139.555 120.5 136.309 120.5L127.037 120.5C123.791 120.5 121.241 117.951 121.241 114.707C121.241 111.462 123.791 108.913 127.037 108.913Z" fill="#C6775B"/><path fill-rule="evenodd" clip-rule="evenodd" d="M122.401 254.904L154.855 254.904C159.26 254.904 162.969 258.611 162.969 263.014C162.969 267.417 159.26 271.125 154.855 271.125L122.401 271.125C117.996 271.125 114.287 267.417 114.287 263.014C114.287 258.611 117.996 254.904 122.401 254.904Z" fill="#C6775B"/><path fill-rule="evenodd" clip-rule="evenodd" d="M26.4275 125.135L103.159 189.556C104.782 190.946 105.014 193.495 103.623 195.117C102.232 196.739 99.682 196.971 98.0593 195.581L21.3275 131.16C19.7048 129.769 19.4729 127.22 20.8639 125.598C22.2548 123.976 24.8048 123.744 26.4275 125.135Z" fill="#DAB083"/><path fill-rule="evenodd" clip-rule="evenodd" d="M35.4686 108.45L103.16 189.093C104.55 190.715 104.319 193.264 102.696 194.654C101.073 196.045 98.5232 195.813 97.1323 194.191L29.4414 113.317C28.0505 111.695 28.2823 109.146 29.905 107.755C31.5277 106.365 34.0777 106.596 35.4686 108.45Z" fill="#DAB083"/><path fill-rule="evenodd" clip-rule="evenodd" d="M135.151 139.038C136.541 139.038 137.469 139.965 137.469 141.356L137.469 183.067C137.469 184.226 136.541 185.385 135.151 185.385L134.919 185.385C133.76 185.385 132.601 184.458 132.601 183.067L132.601 141.356C132.832 139.965 133.991 139.038 135.151 139.038Z" fill="#FEE781"/><path fill-rule="evenodd" clip-rule="evenodd" d="M142.105 136.721C143.496 136.721 144.423 137.648 144.423 139.038L144.423 213.192C144.423 214.351 143.496 215.51 142.105 215.51L141.873 215.51C140.714 215.51 139.555 214.583 139.555 213.192L139.555 139.038C139.787 137.648 140.946 136.721 142.105 136.721Z" fill="#FEE781"/><path fill-rule="evenodd" clip-rule="evenodd" d="M144.424 134.404C145.814 134.404 146.742 135.331 146.742 136.721L146.742 199.288C146.742 200.447 145.814 201.606 144.424 201.606L144.192 201.606C143.033 201.606 141.874 200.679 141.874 199.288L141.874 136.721C142.105 135.331 143.264 134.404 144.424 134.404Z" fill="#FEE781"/><path fill-rule="evenodd" clip-rule="evenodd" d="M153.696 134.404C155.087 134.404 156.014 135.331 156.014 136.721L156.014 231.731C156.014 232.889 155.087 234.048 153.696 234.048L153.464 234.048C152.305 234.048 151.146 233.121 151.146 231.731L151.146 136.721C151.378 135.331 152.537 134.404 153.696 134.404Z" fill="#FEE781"/><path d="M129.818 148.076C129.355 148.076 128.891 147.844 128.427 147.613C127.5 146.917 127.268 145.295 128.196 144.368C135.382 135.331 146.046 131.16 159.723 131.623C160.882 131.623 162.041 132.782 161.809 133.941C161.809 135.099 160.65 136.026 159.491 136.026C146.973 135.563 137.932 139.27 131.673 147.149C130.977 147.844 130.514 148.076 129.818 148.076Z" fill="#262525"/><path fill-rule="evenodd" clip-rule="evenodd" d="M57.7232 159.894L73.7186 159.894C80.905 159.894 86.7004 165.688 86.7004 172.871C86.7004 173.566 86.7004 174.262 86.4686 174.957L84.6141 186.08C83.6868 192.337 78.1232 196.971 71.8641 196.971L57.7232 196.971C50.5368 196.971 44.7413 191.178 44.7413 183.994L44.7413 172.871C44.7413 165.688 50.5368 159.894 57.7232 159.894Z" fill="#C6775C"/><path fill-rule="evenodd" clip-rule="evenodd" d="M75.805 159.894L87.8596 159.894C92.2641 159.894 95.7414 163.37 95.7414 167.773L95.7414 168.237C95.7414 172.639 92.2641 176.115 87.8596 176.115L75.805 176.115C71.4005 176.115 67.9232 172.639 67.9232 168.237L67.9232 167.773C67.9232 163.37 71.4005 159.894 75.805 159.894Z" fill="#C6775C"/></svg>